<?xml version="1.0" encoding="UTF-8" standalone="no"?>
<svg
   height="100px"
   width="100px"
   fill="#000000"
   version="1.1"
   x="0px"
   y="0px"
   viewBox="0 0 100 100"
   style="enable-background:new 0 0 100 100;"
   xml:space="preserve"
   id="svg32"
   sodipodi:docname="barcode.svg"
   inkscape:version="1.2.2 (b0a8486541, 2022-12-01)"
   xmlns:inkscape="http://www.inkscape.org/namespaces/inkscape"
   xmlns:sodipodi="http://sodipodi.sourceforge.net/DTD/sodipodi-0.dtd"
   xmlns="http://www.w3.org/2000/svg"
   xmlns:svg="http://www.w3.org/2000/svg"><defs
     id="defs36" /><sodipodi:namedview
     id="namedview34"
     pagecolor="#ffffff"
     bordercolor="#000000"
     borderopacity="0.25"
     inkscape:showpageshadow="2"
     inkscape:pageopacity="0.0"
     inkscape:pagecheckerboard="0"
     inkscape:deskcolor="#d1d1d1"
     showgrid="false"
     inkscape:zoom="2.36"
     inkscape:cx="50.211864"
     inkscape:cy="50.211864"
     inkscape:window-width="2498"
     inkscape:window-height="1371"
     inkscape:window-x="0"
     inkscape:window-y="0"
     inkscape:window-maximized="1"
     inkscape:current-layer="svg32" /><g
     id="g2043"
     style="fill:#b3b3b3"><rect
       x="11.4"
       y="29"
       width="5.1999998"
       height="42"
       id="rect2"
       style="fill:#b3b3b3" /><polygon
       points="2.5,37.2 6.8,37.2 6.8,24.4 19.6,24.4 19.6,20.1 2.5,20.1 "
       id="polygon4"
       style="fill:#b3b3b3" /><polygon
       points="6.8,62.8 2.5,62.8 2.5,79.9 19.6,79.9 19.6,75.6 6.8,75.6 "
       id="polygon6"
       style="fill:#b3b3b3" /><polygon
       points="80.4,20.1 80.4,24.4 93.2,24.4 93.2,37.2 97.5,37.2 97.5,20.1 "
       id="polygon8"
       style="fill:#b3b3b3" /><polygon
       points="93.2,75.6 80.4,75.6 80.4,79.9 97.5,79.9 97.5,62.8 93.2,62.8 "
       id="polygon10"
       style="fill:#b3b3b3" /><rect
       x="33"
       y="29"
       width="4.3000002"
       height="42"
       id="rect12"
       style="fill:#b3b3b3" /><rect
       x="41.099998"
       y="29"
       width="4.3000002"
       height="42"
       id="rect14"
       style="fill:#b3b3b3" /><rect
       x="49.099998"
       y="29"
       width="10.8"
       height="42"
       id="rect16"
       style="fill:#b3b3b3" /><rect
       x="63.599998"
       y="29"
       width="4.3000002"
       height="42"
       id="rect18"
       style="fill:#b3b3b3" /><rect
       x="71.599998"
       y="29"
       width="4.3000002"
       height="42"
       id="rect20"
       style="fill:#b3b3b3" /><rect
       x="79.599998"
       y="29"
       width="8.8999996"
       height="42"
       id="rect22"
       style="fill:#b3b3b3" /><rect
       x="20.4"
       y="29"
       width="8.8999996"
       height="42"
       id="rect24"
       style="fill:#b3b3b3" /></g></svg>
