<svg xmlns="http://www.w3.org/2000/svg" xmlns:xlink="http://www.w3.org/1999/xlink" version="1.1" x="0px" y="0px" viewBox="0 0 100 100" enable-background="new 0 0 100 100" xml:space="preserve"><path d="M81.9,41.1c0,0.9-0.7,1.6-1.6,1.6c-0.9,0-1.6-0.7-1.6-1.6v-5.7c0-5.1-4.2-9.3-9.3-9.3h-8.1l2.1,2.1c0.6,0.6,0.6,1.6,0,2.3  c-0.3,0.3-0.7,0.5-1.1,0.5s-0.8-0.2-1.1-0.5l-4.8-4.8c-0.6-0.6-0.6-1.6,0-2.3l4.8-4.8c0.6-0.6,1.6-0.6,2.3,0c0.6,0.6,0.6,1.6,0,2.3  l-2.1,2.1h8.1c6.9,0,12.5,5.6,12.5,12.5V41.1z M81.8,52.4v28c0,0.9-0.7,1.6-1.6,1.6h-28c-0.9,0-1.6-0.7-1.6-1.6v-28  c0-0.9,0.7-1.6,1.6-1.6h28C81.1,50.8,81.8,51.5,81.8,52.4z M78.6,54H53.8v24.8h24.8V54z M18.1,64.6c0,6.9,5.6,12.5,12.5,12.5h8.1  l-2.1,2.1c-0.6,0.6-0.6,1.6,0,2.3c0.3,0.3,0.7,0.5,1.1,0.5s0.8-0.2,1.1-0.5l4.8-4.8c0.3-0.3,0.5-0.7,0.5-1.1s-0.2-0.8-0.5-1.1  l-4.8-4.8c-0.6-0.6-1.6-0.6-2.3,0c-0.6,0.6-0.6,1.6,0,2.3l2.1,2.1h-8.1c-5.1,0-9.3-4.2-9.3-9.3v-5.7c0-0.9-0.7-1.6-1.6-1.6  c-0.9,0-1.6,0.7-1.6,1.6V64.6z M18.2,19.6c0-0.9,0.7-1.6,1.6-1.6h28c0.9,0,1.6,0.7,1.6,1.6v28c0,0.9-0.7,1.6-1.6,1.6h-28  c-0.9,0-1.6-0.7-1.6-1.6V19.6z M21.4,46h24.8V21.2H21.4V46z"></path></svg>