<?xml version="1.0" encoding="UTF-8"?>
<svg width="1200pt" height="1200pt" version="1.1" viewBox="0 0 1200 1200" xmlns="http://www.w3.org/2000/svg">
 <g>
  <path d="m840 312h-24c0-25.461-10.113-49.879-28.117-67.883-18.004-18.004-42.422-28.117-67.883-28.117h-144c-25.461 0-49.879 10.113-67.883 28.117-18.004 18.004-28.117 42.422-28.117 67.883h-24c-38.191 0-74.816 15.172-101.82 42.176-27.004 27.008-42.176 63.633-42.176 101.82v144c0 17.148 9.1484 32.996 24 41.57 14.852 8.5742 33.148 8.5742 48 0 14.852-8.5742 24-24.422 24-41.57v-144c0-12.73 5.0586-24.938 14.059-33.941 9.0039-9 21.211-14.059 33.941-14.059h24c0 25.461 10.113 49.879 28.117 67.883 18.004 18.004 42.422 28.117 67.883 28.117h144c25.461 0 49.879-10.113 67.883-28.117 18.004-18.004 28.117-42.422 28.117-67.883h24c12.73 0 24.938 5.0586 33.941 14.059 9 9.0039 14.059 21.211 14.059 33.941v384c0 12.73-5.0586 24.938-14.059 33.941-9.0039 9-21.211 14.059-33.941 14.059h-48c-17.148 0-32.996 9.1484-41.57 24-8.5742 14.852-8.5742 33.148 0 48 8.5742 14.852 24.422 24 41.57 24h48c38.191 0 74.816-15.172 101.82-42.176 27.004-27.008 42.176-63.633 42.176-101.82v-384c0-38.191-15.172-74.816-42.176-101.82-27.008-27.004-63.633-42.176-101.82-42.176zm-120 96h-144v-96h144z"/>
  <path d="m264 852h280.08l-49.199 49.199c-8.0078 7.793-13.098 18.105-14.406 29.203-1.3125 11.102 1.2344 22.312 7.207 31.758 7.8828 12.176 20.852 20.133 35.277 21.645 14.426 1.5156 28.762-3.5742 39.004-13.844l111.48-111.48c14.441-14.43 22.559-34.004 22.559-54.422 0-20.414-8.1172-39.992-22.559-54.418l-111.48-111.48c-10.062-10.078-24.082-15.168-38.266-13.895-14.184 1.2734-27.07 8.7812-35.176 20.496-6.3164 9.7578-9.0312 21.414-7.6719 32.957 1.3594 11.547 6.7031 22.254 15.113 30.281l48 48h-279.96c-17.148 0-32.996 9.1484-41.57 24-8.5742 14.852-8.5742 33.148 0 48 8.5742 14.852 24.422 24 41.57 24z"/>
 </g>
</svg>
